<?xml version="1.0" standalone="no"?>
<!DOCTYPE svg PUBLIC "-//W3C//DTD SVG 20010904//EN"
 "http://www.w3.org/TR/2001/REC-SVG-20010904/DTD/svg10.dtd">
<svg version="1.0" xmlns="http://www.w3.org/2000/svg"
 width="1024.000000pt" height="1024.000000pt" viewBox="0 0 1024.000000 1024.000000"
 preserveAspectRatio="xMidYMid meet">

<g transform="translate(0.000000,1024.000000) scale(0.100000,-0.100000)"
fill="#000000" stroke="none">
<path d="M2062 8417 l-453 -453 482 -474 c265 -261 610 -602 768 -756 l286
-282 -46 -93 c-88 -177 -145 -361 -185 -594 -28 -158 -25 -510 5 -677 61 -346
188 -644 385 -906 41 -53 90 -112 109 -131 l36 -34 77 79 c42 44 156 158 252
256 l175 176 -52 69 c-61 80 -159 275 -196 388 -14 44 -35 134 -47 200 -17
102 -19 147 -15 300 6 192 19 270 67 417 129 388 440 719 829 883 186 79 373
115 591 115 297 0 515 -57 755 -196 l90 -52 247 246 c136 135 245 249 242 254
-12 18 -226 154 -313 197 -317 159 -581 225 -961 238 -282 10 -541 -27 -802
-114 -76 -25 -180 -66 -232 -92 l-94 -46 -620 615 c-340 338 -688 684 -773
767 l-154 153 -453 -453z"/>
<path d="M6532 6624 c-262 -257 -263 -257 -244 -278 43 -47 132 -186 175 -271
58 -116 101 -240 129 -368 31 -147 32 -419 0 -560 -46 -210 -132 -406 -250
-571 -220 -309 -582 -524 -977 -582 -155 -22 -407 -15 -548 15 -181 38 -340
102 -501 198 l-58 36 -254 -254 c-140 -140 -254 -256 -254 -259 1 -3 18 -16
38 -30 20 -13 73 -48 116 -77 237 -158 559 -278 887 -330 158 -25 527 -25 687
0 234 37 440 100 618 191 l101 51 729 -722 c400 -398 731 -723 734 -723 3 0
211 206 463 458 l457 457 -212 210 c-605 597 -1248 1238 -1248 1245 0 4 15 39
34 76 141 286 206 571 206 902 0 269 -34 472 -119 712 -86 240 -242 504 -407
688 l-39 43 -263 -257z"/>
<path d="M4965 6490 c-436 -68 -787 -377 -901 -792 -34 -126 -43 -316 -20
-445 92 -527 535 -893 1081 -893 295 0 546 98 754 295 198 188 302 402 331
679 53 513 -316 1005 -854 1137 -94 23 -300 33 -391 19z"/>
</g>
</svg>
