<svg version="1.1" id="Layer_1" xmlns="http://www.w3.org/2000/svg" xmlns:xlink="http://www.w3.org/1999/xlink" x="0px" y="0px"
	 width="100%" viewBox="0 0 512 512" enable-background="new 0 0 512 512" xml:space="preserve">
<path fill="#000000" opacity="1.000000" stroke="none" 
	d="
M285.000000,513.000000 
	C190.023056,513.000000 95.546112,513.000000 1.034582,513.000000 
	C1.034582,342.398041 1.034582,171.796051 1.034582,1.097036 
	C171.560287,1.097036 342.120667,1.097036 512.840515,1.097036 
	C512.840515,171.666550 512.840515,342.333252 512.840515,513.000000 
	C437.129364,513.000000 361.314667,513.000000 285.000000,513.000000 
M482.686188,405.925537 
	C481.651947,404.300781 480.617706,402.676025 479.583466,401.051270 
	C479.058777,401.239410 478.534058,401.427551 478.009338,401.615662 
	C478.009338,400.191284 478.009338,398.766907 478.009338,397.342529 
	C477.675781,397.553802 477.342224,397.765045 477.008667,397.976318 
	C472.947083,393.861755 468.885529,389.747192 464.215210,385.015930 
	C464.062714,385.006592 462.763031,384.926819 462.949341,384.938263 
	C454.026031,376.017487 445.957855,367.951599 437.045929,359.042206 
	C437.048553,359.080475 436.950256,357.646210 436.885681,356.704498 
	C430.139832,353.642578 427.805511,346.185089 421.409363,343.489502 
	C420.846100,343.252075 420.953430,341.423553 420.684723,339.989380 
	C419.229034,339.989380 417.804382,339.989380 416.379730,339.989380 
	C416.589172,339.660492 416.798584,339.331604 417.008026,339.002747 
	C408.935547,330.941986 400.863068,322.881226 392.136505,314.167328 
	C392.136505,313.441071 392.136505,311.476074 392.136505,309.511047 
	C392.614746,309.658905 393.092957,309.806763 393.571198,309.954590 
	C394.386658,308.130981 395.573700,306.377777 395.935638,304.468231 
	C396.571228,301.114685 395.416779,296.241882 397.300964,294.541199 
	C401.750519,290.524933 399.255859,286.016876 400.001801,281.815582 
	C400.581207,278.552246 401.111084,275.277039 401.538757,271.990906 
	C401.855865,269.554443 401.070038,266.345673 402.357178,264.787445 
	C405.626251,260.829895 404.056152,256.597229 403.722229,252.715256 
	C402.960510,243.860504 401.304779,235.082855 400.020233,226.272720 
	C399.810425,224.833633 400.174835,222.853485 399.359467,222.040421 
	C396.105957,218.796188 395.309631,215.108688 395.894012,210.726257 
	C396.109528,209.110092 395.605927,205.987656 395.081268,205.909988 
	C391.425812,205.368881 392.399628,202.532562 391.733459,200.410950 
	C390.585022,196.753601 390.184143,191.791702 387.613708,189.902878 
	C383.810303,187.108063 384.366241,183.840561 383.871521,180.413452 
	C383.438934,180.726486 383.006378,181.039520 382.573822,181.352554 
	C379.510803,177.212128 376.447754,173.071716 373.384735,168.931290 
	C373.727081,168.654678 374.069427,168.378052 374.411774,168.101440 
	C372.446289,168.101440 370.480774,168.101440 368.555603,168.101440 
	C368.018097,169.452393 367.837250,171.011887 366.964569,171.857132 
	C365.420868,173.352325 363.224487,174.182526 361.714203,175.701599 
	C358.146759,179.289886 355.003967,183.309128 351.357300,186.807907 
	C345.552124,192.377716 339.310272,197.498917 333.616272,203.174225 
	C331.898895,204.885986 331.385162,207.805359 330.132751,210.587708 
	C332.423370,210.932709 333.645294,211.116760 335.032959,211.325760 
	C335.032959,213.935211 335.032959,216.232788 335.032959,218.729355 
	C336.431885,218.939468 337.649780,219.122391 338.306824,219.221085 
	C339.008392,222.006348 339.402222,224.381561 340.231140,226.593750 
	C340.849152,228.243088 342.701874,229.625046 342.836639,231.224472 
	C343.283661,236.530563 343.942291,241.578110 345.665680,246.799683 
	C347.453827,252.217484 346.870911,258.492035 346.881531,264.392670 
	C346.887299,267.595215 347.095520,272.067383 345.224915,273.727783 
	C341.778473,276.786957 343.326477,279.579010 343.806335,282.625610 
	C342.033936,282.943420 340.452637,283.226929 338.871368,283.510468 
	C338.896637,283.820801 338.921906,284.131134 338.947174,284.441467 
	C339.993835,284.841248 341.040497,285.241058 340.985779,285.220154 
	C339.978271,288.630859 339.138641,291.473267 338.152466,294.811676 
	C337.597046,294.893372 336.381256,295.072144 334.989502,295.276825 
	C334.989502,297.831268 334.989502,300.128540 334.989502,302.690002 
	C333.595947,302.897522 332.376801,303.079071 332.235626,303.100098 
	C330.018585,307.710510 328.172516,311.549377 326.326477,315.388275 
	C324.951141,316.225281 323.985992,317.466309 322.944946,318.640045 
	C322.486115,319.157349 321.873840,319.538879 321.329865,319.980377 
	C319.229462,321.685059 316.673920,323.055664 315.126678,325.165771 
	C312.298737,329.022461 309.155609,331.871643 304.141388,331.992340 
	C303.514893,332.007416 302.890594,332.112030 302.345886,332.166992 
	C302.026550,333.608429 301.761536,334.804810 301.460510,336.163666 
	C298.878174,336.163666 296.586548,336.163666 294.321472,336.163666 
	C294.023682,337.585175 293.772339,338.784821 293.398407,340.569885 
	C289.443665,340.569885 285.698425,340.569885 281.953186,340.569885 
	C281.957214,340.900879 281.961212,341.231873 281.965210,341.562866 
	C283.163971,341.830109 284.362701,342.097351 286.455231,342.563873 
	C282.204285,343.471252 278.675446,343.865479 275.399017,344.993042 
	C266.577637,348.028870 257.682709,349.288727 248.494690,347.137207 
	C244.291687,346.153046 240.138855,344.950165 235.926117,344.013672 
	C233.455811,343.464478 230.912430,343.244110 227.501526,342.743744 
	C229.680359,342.077301 230.884247,341.709076 232.088135,341.340820 
	C232.030853,340.968353 231.973572,340.595856 231.916290,340.223389 
	C227.720963,340.223389 223.525635,340.223389 219.438843,340.223389 
	C219.687881,338.623993 219.861725,337.507446 220.091202,336.033722 
	C217.396606,336.033722 214.945572,336.033722 212.326797,336.033722 
	C212.096222,334.529633 211.910049,333.315338 211.637405,331.536865 
	C208.873810,332.056763 205.649826,331.678741 204.125244,333.110382 
	C194.453217,342.192993 185.156860,351.675659 175.736481,361.026245 
	C172.925003,363.816864 169.867050,366.415039 167.449692,369.513123 
	C166.713211,370.457001 167.125916,373.594238 168.077911,374.310272 
	C170.695160,376.278931 173.938812,377.389984 176.814804,379.048126 
	C178.791687,380.187927 180.424408,381.982269 182.466385,382.938843 
	C186.167587,384.672699 190.063538,385.989471 193.859024,387.527649 
	C194.043747,387.602478 193.962936,388.344025 194.144363,388.413605 
	C196.508087,389.319824 198.869186,390.253601 201.292099,390.975067 
	C202.355408,391.291656 203.557617,391.141724 204.504578,391.193176 
	C204.318649,392.449707 204.155594,393.551758 204.039658,394.335266 
	C208.758682,395.032928 213.889877,394.584381 217.570633,396.681549 
	C221.120483,398.704071 224.354156,398.676422 227.920242,399.077240 
	C233.670563,399.723541 239.350677,401.102570 245.108673,401.546509 
	C253.073654,402.160614 261.224121,403.229248 269.031891,402.167358 
	C275.967407,401.224091 282.718933,398.818634 289.910034,398.955261 
	C292.311371,399.000916 296.161530,399.120239 296.879639,397.830627 
	C299.571564,392.996277 303.694183,395.812286 307.060822,395.042603 
	C307.834198,394.865814 308.682434,395.016571 309.971161,395.016571 
	C309.193848,390.859375 311.408569,390.470764 313.834320,391.837189 
	C320.582550,398.571259 327.330780,405.305298 334.079010,412.039337 
	C335.302429,413.438629 333.843048,417.045898 338.304565,416.155579 
	C338.417145,416.133148 338.632263,417.325531 339.004791,417.784973 
	C340.706238,419.883362 342.402679,421.996643 344.260010,423.953583 
	C345.310822,425.060791 346.669220,425.876129 347.889069,426.822906 
	C347.696228,427.208282 347.503387,427.593628 347.310547,427.979004 
	C348.735474,427.979004 350.160370,427.979004 351.585297,427.979004 
	C351.382629,428.301239 351.179962,428.623474 350.977295,428.945740 
	C359.036285,437.018372 367.095276,445.090973 375.947845,453.958557 
	C375.949280,453.974762 376.077881,455.407867 376.154388,456.260437 
	C382.797241,459.536011 385.387054,466.690582 391.633850,469.557007 
	C392.201385,469.817413 392.057312,471.628601 392.301086,473.055786 
	C393.822113,473.055786 395.246368,473.055786 395.206055,473.055786 
	C402.107483,480.092896 408.134399,486.238312 414.640442,492.872253 
	C417.581268,491.418488 422.698700,496.029175 426.080322,489.385254 
	C427.241547,487.103821 430.911041,484.741974 433.121490,482.026825 
	C434.652679,480.146057 436.635681,478.611267 438.519379,477.045227 
	C440.604645,475.311676 442.839905,473.758942 444.934601,472.035950 
	C445.456421,471.606720 451.508301,465.343018 451.897827,464.953827 
	C453.630524,463.222534 455.328369,461.454041 456.983002,459.647858 
	C458.036865,458.497437 458.993073,457.257477 459.993042,456.057678 
	C460.348877,456.241333 460.704712,456.424988 461.060547,456.608673 
	C461.060547,455.188141 461.060547,453.767609 461.060547,451.982117 
	C462.843994,451.982117 464.266144,451.982117 464.566376,451.982117 
	C467.226807,448.825043 469.167694,446.369537 471.279388,444.070892 
	C472.630524,442.600128 474.206116,441.328552 475.731049,440.026154 
	C477.787445,438.269867 480.106842,436.766602 481.915436,434.790527 
	C483.743500,432.793182 484.593414,429.333160 486.734589,428.297394 
	C492.876343,425.326294 495.084625,420.968872 494.134155,416.289093 
	C490.717468,412.602875 488.399414,410.027161 485.984314,407.545898 
	C485.333405,406.877197 484.387878,406.495239 482.686188,405.925537 
M137.383545,57.050644 
	C134.927994,55.171631 132.292740,53.480610 130.071121,51.356880 
	C128.131836,49.503063 126.779823,47.048187 124.934265,45.078156 
	C123.811356,43.879520 122.244667,43.096634 120.877335,42.126987 
	C121.074478,41.803944 121.271629,41.480896 121.468773,41.157852 
	C120.036919,41.023659 118.605072,40.889465 117.173218,40.755272 
	C117.397629,40.465202 117.622047,40.175133 117.846466,39.885063 
	C111.802322,33.760540 105.758186,27.636015 99.376839,21.169792 
	C96.560936,21.169792 92.925690,21.169792 90.765213,21.169792 
	C77.898911,34.041759 65.858116,46.087856 53.029114,58.922501 
	C53.027008,58.945595 52.897034,60.370934 52.766296,61.804604 
	C51.032242,61.953896 49.600063,62.077194 48.167885,62.200497 
	C48.375660,62.651005 48.583435,63.101509 48.791210,63.552017 
	C47.209564,64.666779 45.126488,65.457855 44.153301,66.965401 
	C42.274040,69.876541 40.275112,72.335785 37.189651,74.137062 
	C35.152184,75.326523 33.603210,77.454239 32.044380,79.334976 
	C30.309568,81.428032 29.277939,84.543587 27.120323,85.761246 
	C21.432308,88.971268 18.772984,93.135551 19.917198,98.140007 
	C25.673023,103.763580 30.489319,108.469215 35.956459,113.810738 
	C35.961697,113.919899 36.024117,115.219948 36.017178,115.075462 
	C40.938908,119.983337 45.032772,124.065674 49.954006,128.973053 
	C49.927483,128.970917 51.360111,129.086731 52.792744,129.202560 
	C52.476486,129.638748 52.160225,130.074936 51.843967,130.511124 
	C54.795906,132.824829 58.388260,134.667984 60.527134,137.579071 
	C62.859509,140.753510 65.251831,143.319824 68.529076,145.595139 
	C71.477402,147.642075 73.334061,151.261414 75.672241,154.187180 
	C76.104103,153.899826 76.535957,153.612457 76.967819,153.325104 
	C76.967819,154.759140 76.967819,156.193192 76.967819,157.627228 
	C77.295029,157.418945 77.622246,157.210663 77.949455,157.002365 
	C83.355003,162.426590 88.760551,167.850815 94.871338,173.982727 
	C94.886368,173.983429 96.186279,174.043930 96.015625,174.035980 
	C105.041328,183.038116 113.230095,191.205505 122.114357,200.066574 
	C121.948883,200.922882 121.765228,202.988556 121.127174,204.902756 
	C120.261848,207.498764 118.805626,209.908936 118.052635,212.528122 
	C117.298958,215.149704 117.266098,217.971710 116.609840,220.629959 
	C115.925735,223.400986 114.511948,226.025726 114.083557,228.816711 
	C113.636414,231.729767 113.983734,234.764786 113.983734,237.696396 
	C112.451691,237.940811 111.249298,238.132645 109.371010,238.432312 
	C110.668922,239.865631 111.484131,240.765900 112.347366,241.719208 
	C111.387604,241.989563 110.668938,242.192001 109.998947,242.380722 
	C110.545685,243.748474 111.612297,245.380356 111.280296,245.747513 
	C108.167213,249.190140 109.740524,251.417084 112.471642,252.766281 
	C111.537750,254.090210 110.034866,255.270752 110.144882,256.274536 
	C110.337837,258.035156 111.519295,259.687408 112.303421,261.422089 
	C109.212456,262.597229 108.848862,265.041534 111.025459,267.980438 
	C112.885002,270.491241 112.934723,272.553955 110.225487,274.414551 
	C110.059715,274.528412 110.155952,275.023804 110.097710,275.744873 
	C111.365685,275.947296 112.658508,276.153656 113.983887,276.365204 
	C113.983887,281.109711 113.938591,285.438629 114.016388,289.765289 
	C114.035332,290.818848 114.137863,292.501862 114.748993,292.809753 
	C118.306122,294.602020 118.033554,297.718079 117.994141,300.845673 
	C117.961052,303.472168 117.987335,306.099396 117.987335,308.626007 
	C119.603836,308.978516 120.799805,309.239319 121.699883,309.435608 
	C122.723480,312.528076 120.067276,316.425812 124.890724,317.833771 
	C125.803078,318.100098 127.094849,320.493652 126.778297,320.988159 
	C124.683464,324.260559 127.348732,325.405029 129.059036,327.060699 
	C129.462250,327.451019 130.040558,328.165985 129.918945,328.517029 
	C128.133560,333.670959 134.704956,333.922028 135.398178,337.988464 
	C135.828842,340.514618 138.615173,342.639191 140.344193,344.943970 
	C140.267151,345.631500 140.190125,346.319031 140.113083,347.006561 
	C142.790985,345.518524 145.912430,344.495605 148.058014,342.449432 
	C153.135040,337.607605 157.603226,332.133392 162.586075,327.185242 
	C168.779083,321.035339 175.318207,315.233948 181.510788,309.083649 
	C182.484543,308.116547 182.417236,306.101227 182.831299,304.570587 
	C178.693130,303.498993 179.855087,298.722198 178.041550,297.072845 
	C174.891266,294.207703 175.121429,291.278259 174.944580,287.968506 
	C174.927200,287.643280 174.301468,287.386017 174.050461,287.031769 
	C172.874207,285.371643 170.876007,283.754944 170.739792,282.000946 
	C170.375275,277.306427 170.977173,273.114197 168.586105,268.093262 
	C166.062775,262.794617 167.680099,255.348434 168.128342,248.884796 
	C168.350784,245.677536 171.572220,242.044937 170.723648,239.514740 
	C168.117538,231.744019 175.745682,226.798676 175.081558,219.852951 
	C175.058578,219.612518 175.379898,219.248672 175.633041,219.085785 
	C179.812637,216.395996 179.053802,210.708008 182.895935,207.563934 
	C185.999191,205.024506 185.623840,199.777725 190.216461,197.533157 
	C191.374573,196.967163 193.222076,194.227295 194.967224,192.639771 
	C197.318695,190.500732 199.332733,187.944534 201.855255,186.052155 
	C204.619751,183.978226 207.798172,182.456024 210.796204,180.693390 
	C211.135345,181.069275 211.474487,181.445160 211.813629,181.821045 
	C211.947342,180.609558 212.081039,179.398071 212.234192,178.010223 
	C214.875107,178.010223 217.171753,178.010223 219.727402,178.010223 
	C219.927811,176.634766 220.106125,175.410858 220.075287,175.622574 
	C224.582275,173.495865 227.997696,171.465469 231.682251,170.252777 
	C236.174637,168.774216 241.416183,171.894638 245.781357,167.251007 
	C247.395645,165.533752 251.795197,165.729568 254.777908,166.133972 
	C264.342377,167.430740 273.838135,169.234039 283.361084,170.837936 
	C284.003815,170.946198 284.731567,170.863052 285.284302,171.139679 
	C287.936157,172.466888 290.541412,173.887283 293.823578,175.624008 
	C293.945923,180.379135 298.996979,176.961227 301.735321,178.393570 
	C301.942932,179.559052 302.158936,180.771637 302.430573,182.296371 
	C305.105194,181.960724 307.997131,182.407959 309.746582,181.200272 
	C312.857300,179.052917 315.315277,175.940811 317.975342,173.164276 
	C322.487030,168.455109 326.882416,163.633347 331.440125,158.969772 
	C336.217957,154.080948 341.349091,149.519028 345.896973,144.430923 
	C348.473663,141.548187 347.218018,140.011948 343.411255,138.877060 
	C339.483246,137.706039 335.538025,135.972763 334.425293,130.959290 
	C332.513092,130.959290 330.544769,130.959290 328.686493,130.959290 
	C329.234283,129.703018 329.716064,128.598160 329.858917,128.270599 
	C323.081909,126.158707 316.859772,124.219734 310.175018,122.136589 
	C310.088684,121.520447 309.919556,120.313843 309.827301,119.655594 
	C304.981720,118.951218 300.195801,119.245895 296.428894,117.428497 
	C292.685425,115.622406 289.180328,115.151138 285.266022,114.870255 
	C282.297150,114.657204 278.466217,115.973839 276.714386,111.640770 
	C276.515625,111.149231 272.363464,111.431198 272.269287,111.852173 
	C271.486603,115.351044 270.088898,112.507782 269.116394,112.251678 
	C268.323975,112.042999 267.085999,110.944618 266.987305,111.058311 
	C263.946869,114.560577 261.035553,111.194450 258.081512,111.099266 
	C256.268311,111.040848 254.453247,112.331894 252.578247,112.616196 
	C249.237320,113.122787 245.822968,113.711823 242.495300,113.476128 
	C241.049713,113.373734 239.742783,111.313896 237.375916,109.291069 
	C237.050705,112.394730 236.923553,113.608101 236.773773,115.037483 
	C231.255264,115.037483 224.805908,113.107170 221.263535,115.493004 
	C216.039688,119.011353 211.038681,118.702042 205.270691,119.056030 
	C205.443298,123.697693 202.407486,123.174622 199.985443,121.941788 
	C193.216187,115.224670 186.446930,108.507553 179.038681,101.156357 
	C179.031738,101.041397 178.953323,99.741508 178.959961,99.851540 
	C174.046371,94.961533 169.948410,90.883232 165.069046,86.027275 
	C165.031204,86.023689 163.598907,85.888145 162.166595,85.752602 
	C160.582108,82.572418 158.393005,80.226219 156.083878,78.004776 
	C154.139725,76.134445 151.891388,74.559631 150.080215,72.577576 
	C148.254868,70.579994 146.858765,66.469208 145.174911,66.415627 
	C141.481689,66.298103 142.490860,62.251122 141.220505,62.268414 
	C137.337723,62.321259 138.050888,59.911236 137.383545,57.050644 
M229.374191,196.988510 
	C226.154709,196.283066 224.391403,197.434219 224.674210,200.149521 
	C220.333344,202.255142 216.504242,204.112518 213.441803,205.598022 
	C210.145050,208.763489 207.323853,211.472351 204.035004,214.630249 
	C203.928513,219.008423 200.239044,224.566040 196.407135,225.586594 
	C195.967316,228.901291 196.646332,233.074173 194.872772,235.102798 
	C191.746017,238.679169 192.014679,242.357437 191.998001,246.289734 
	C191.961945,254.785431 191.982849,263.281372 191.992996,271.777222 
	C191.994385,272.938660 191.609222,274.763336 192.179459,275.157379 
	C197.113235,278.566681 195.856613,283.697876 196.017563,288.353455 
	C200.206039,289.370850 203.905746,294.975983 204.055450,299.167694 
	C207.539215,302.692871 210.402832,305.590546 212.782913,307.998901 
	C216.882126,310.020081 220.555206,311.831146 224.840988,313.944305 
	C224.906586,314.397125 225.083588,315.619324 225.145279,316.045227 
	C229.268173,317.165771 232.842575,318.066650 236.368454,319.128632 
	C237.881027,319.584167 239.285065,320.906586 240.751556,320.927826 
	C251.577316,321.084534 262.406403,321.019531 273.234406,321.000885 
	C274.389893,320.998901 276.283081,321.251434 276.585358,320.700653 
	C279.365997,315.633636 284.227570,317.418884 288.700653,316.884766 
	C288.893951,315.683319 289.089478,314.468109 289.176056,313.929901 
	C293.514008,311.813141 297.336761,309.947723 300.868622,308.224304 
	C303.696381,305.387024 306.455658,302.618469 309.894623,299.167877 
	C310.187622,293.870850 313.012939,289.605255 317.971405,288.362549 
	C318.166260,283.715729 316.799591,278.490570 321.890137,275.273712 
	C321.899170,263.121429 321.908203,250.969162 321.917236,238.816879 
	C316.336395,235.609528 318.619080,229.904785 317.823700,225.281540 
	C313.814484,224.629059 310.293396,219.372650 309.789856,214.807541 
	C306.262970,211.164154 303.538574,208.349777 300.814209,205.535400 
	C300.744904,205.757477 300.675568,205.979538 300.606262,206.201614 
	C296.206207,203.516235 291.806152,200.830856 287.406067,198.145477 
	C285.306122,196.960403 281.618011,197.610199 280.013031,196.077957 
	C276.297363,192.530670 272.180115,193.004639 267.920746,192.993134 
	C260.757599,192.973785 253.594360,192.968292 246.431290,192.993713 
	C242.016479,193.009384 237.401718,192.081345 233.984451,196.310516 
	C233.385086,197.052292 231.541183,196.788452 229.374191,196.988510 
z"/>
<path fill="#F4F4F4" opacity="1.000000" stroke="none" 
	d="
M483.131897,405.953583 
	C484.387878,406.495239 485.333405,406.877197 485.984314,407.545898 
	C488.399414,410.027161 490.717468,412.602875 494.134155,416.289093 
	C495.084625,420.968872 492.876343,425.326294 486.734589,428.297394 
	C484.593414,429.333160 483.743500,432.793182 481.915436,434.790527 
	C480.106842,436.766602 477.787445,438.269867 475.731049,440.026154 
	C474.206116,441.328552 472.630524,442.600128 471.279388,444.070892 
	C469.167694,446.369537 467.226807,448.825043 464.566376,451.982117 
	C464.266144,451.982117 462.843994,451.982117 461.060547,451.982117 
	C461.060547,453.767609 461.060547,455.188141 461.060547,456.608673 
	C460.704712,456.424988 460.348877,456.241333 459.993042,456.057678 
	C458.993073,457.257477 458.036865,458.497437 456.983002,459.647858 
	C455.328369,461.454041 453.630524,463.222534 451.897827,464.953827 
	C451.508301,465.343018 445.456421,471.606720 444.934601,472.035950 
	C442.839905,473.758942 440.604645,475.311676 438.519379,477.045227 
	C436.635681,478.611267 434.652679,480.146057 433.121490,482.026825 
	C430.911041,484.741974 427.241547,487.103821 426.080322,489.385254 
	C422.698700,496.029175 417.581268,491.418488 414.640442,492.872253 
	C408.134399,486.238312 402.107483,480.092896 395.206055,473.055786 
	C395.246368,473.055786 393.822113,473.055786 392.301086,473.055786 
	C392.057312,471.628601 392.201385,469.817413 391.633850,469.557007 
	C385.387054,466.690582 382.797241,459.536011 376.154388,456.260437 
	C376.077881,455.407867 375.949280,453.974762 375.947845,453.958557 
	C367.095276,445.090973 359.036285,437.018372 350.977295,428.945740 
	C351.179962,428.623474 351.382629,428.301239 351.585297,427.979004 
	C350.160370,427.979004 348.735474,427.979004 347.310547,427.979004 
	C347.503387,427.593628 347.696228,427.208282 347.889069,426.822906 
	C346.669220,425.876129 345.310822,425.060791 344.260010,423.953583 
	C342.402679,421.996643 340.706238,419.883362 339.004791,417.784973 
	C338.632263,417.325531 338.417145,416.133148 338.304565,416.155579 
	C333.843048,417.045898 335.302429,413.438629 334.079010,412.039337 
	C327.330780,405.305298 320.582550,398.571259 313.834320,391.837189 
	C311.408569,390.470764 309.193848,390.859375 309.971161,395.016571 
	C308.682434,395.016571 307.834198,394.865814 307.060822,395.042603 
	C303.694183,395.812286 299.571564,392.996277 296.879639,397.830627 
	C296.161530,399.120239 292.311371,399.000916 289.910034,398.955261 
	C282.718933,398.818634 275.967407,401.224091 269.031891,402.167358 
	C261.224121,403.229248 253.073654,402.160614 245.108673,401.546509 
	C239.350677,401.102570 233.670563,399.723541 227.920242,399.077240 
	C224.354156,398.676422 221.120483,398.704071 217.570633,396.681549 
	C213.889877,394.584381 208.758682,395.032928 204.039658,394.335266 
	C204.155594,393.551758 204.318649,392.449707 204.504578,391.193176 
	C203.557617,391.141724 202.355408,391.291656 201.292099,390.975067 
	C198.869186,390.253601 196.508087,389.319824 194.144363,388.413605 
	C193.962936,388.344025 194.043747,387.602478 193.859024,387.527649 
	C190.063538,385.989471 186.167587,384.672699 182.466385,382.938843 
	C180.424408,381.982269 178.791687,380.187927 176.814804,379.048126 
	C173.938812,377.389984 170.695160,376.278931 168.077911,374.310272 
	C167.125916,373.594238 166.713211,370.457001 167.449692,369.513123 
	C169.867050,366.415039 172.925003,363.816864 175.736481,361.026245 
	C185.156860,351.675659 194.453217,342.192993 204.125244,333.110382 
	C205.649826,331.678741 208.873810,332.056763 211.637405,331.536865 
	C211.910049,333.315338 212.096222,334.529633 212.326797,336.033722 
	C214.945572,336.033722 217.396606,336.033722 220.091202,336.033722 
	C219.861725,337.507446 219.687881,338.623993 219.438843,340.223389 
	C223.525635,340.223389 227.720963,340.223389 231.916290,340.223389 
	C231.973572,340.595856 232.030853,340.968353 232.088135,341.340820 
	C230.884247,341.709076 229.680359,342.077301 227.501526,342.743744 
	C230.912430,343.244110 233.455811,343.464478 235.926117,344.013672 
	C240.138855,344.950165 244.291687,346.153046 248.494690,347.137207 
	C257.682709,349.288727 266.577637,348.028870 275.399017,344.993042 
	C278.675446,343.865479 282.204285,343.471252 286.455231,342.563873 
	C284.362701,342.097351 283.163971,341.830109 281.965210,341.562866 
	C281.961212,341.231873 281.957214,340.900879 281.953186,340.569885 
	C285.698425,340.569885 289.443665,340.569885 293.398407,340.569885 
	C293.772339,338.784821 294.023682,337.585175 294.321472,336.163666 
	C296.586548,336.163666 298.878174,336.163666 301.460510,336.163666 
	C301.761536,334.804810 302.026550,333.608429 302.345886,332.166992 
	C302.890594,332.112030 303.514893,332.007416 304.141388,331.992340 
	C309.155609,331.871643 312.298737,329.022461 315.126678,325.165771 
	C316.673920,323.055664 319.229462,321.685059 321.329865,319.980377 
	C321.873840,319.538879 322.486115,319.157349 322.944946,318.640045 
	C323.985992,317.466309 324.951141,316.225281 326.326477,315.388275 
	C328.172516,311.549377 330.018585,307.710510 332.235626,303.100098 
	C332.376801,303.079071 333.595947,302.897522 334.989502,302.690002 
	C334.989502,300.128540 334.989502,297.831268 334.989502,295.276825 
	C336.381256,295.072144 337.597046,294.893372 338.152466,294.811676 
	C339.138641,291.473267 339.978271,288.630859 340.985779,285.220154 
	C341.040497,285.241058 339.993835,284.841248 338.947174,284.441467 
	C338.921906,284.131134 338.896637,283.820801 338.871368,283.510468 
	C340.452637,283.226929 342.033936,282.943420 343.806335,282.625610 
	C343.326477,279.579010 341.778473,276.786957 345.224915,273.727783 
	C347.095520,272.067383 346.887299,267.595215 346.881531,264.392670 
	C346.870911,258.492035 347.453827,252.217484 345.665680,246.799683 
	C343.942291,241.578110 343.283661,236.530563 342.836639,231.224472 
	C342.701874,229.625046 340.849152,228.243088 340.231140,226.593750 
	C339.402222,224.381561 339.008392,222.006348 338.306824,219.221085 
	C337.649780,219.122391 336.431885,218.939468 335.032959,218.729355 
	C335.032959,216.232788 335.032959,213.935211 335.032959,211.325760 
	C333.645294,211.116760 332.423370,210.932709 330.132751,210.587708 
	C331.385162,207.805359 331.898895,204.885986 333.616272,203.174225 
	C339.310272,197.498917 345.552124,192.377716 351.357300,186.807907 
	C355.003967,183.309128 358.146759,179.289886 361.714203,175.701599 
	C363.224487,174.182526 365.420868,173.352325 366.964569,171.857132 
	C367.837250,171.011887 368.018097,169.452393 368.555603,168.101440 
	C370.480774,168.101440 372.446289,168.101440 374.411774,168.101440 
	C374.069427,168.378052 373.727081,168.654678 373.384735,168.931290 
	C376.447754,173.071716 379.510803,177.212128 382.573822,181.352554 
	C383.006378,181.039520 383.438934,180.726486 383.871521,180.413452 
	C384.366241,183.840561 383.810303,187.108063 387.613708,189.902878 
	C390.184143,191.791702 390.585022,196.753601 391.733459,200.410950 
	C392.399628,202.532562 391.425812,205.368881 395.081268,205.909988 
	C395.605927,205.987656 396.109528,209.110092 395.894012,210.726257 
	C395.309631,215.108688 396.105957,218.796188 399.359467,222.040421 
	C400.174835,222.853485 399.810425,224.833633 400.020233,226.272720 
	C401.304779,235.082855 402.960510,243.860504 403.722229,252.715256 
	C404.056152,256.597229 405.626251,260.829895 402.357178,264.787445 
	C401.070038,266.345673 401.855865,269.554443 401.538757,271.990906 
	C401.111084,275.277039 400.581207,278.552246 400.001801,281.815582 
	C399.255859,286.016876 401.750519,290.524933 397.300964,294.541199 
	C395.416779,296.241882 396.571228,301.114685 395.935638,304.468231 
	C395.573700,306.377777 394.386658,308.130981 393.571198,309.954590 
	C393.092957,309.806763 392.614746,309.658905 392.136505,309.511047 
	C392.136505,311.476074 392.136505,313.441071 392.136505,314.167328 
	C400.863068,322.881226 408.935547,330.941986 417.008026,339.002747 
	C416.798584,339.331604 416.589172,339.660492 416.379730,339.989380 
	C417.804382,339.989380 419.229034,339.989380 420.684723,339.989380 
	C420.953430,341.423553 420.846100,343.252075 421.409363,343.489502 
	C427.805511,346.185089 430.139832,353.642578 436.885681,356.704498 
	C436.950256,357.646210 437.048553,359.080475 437.045929,359.042206 
	C445.957855,367.951599 454.026031,376.017487 462.949341,384.938263 
	C462.763031,384.926819 464.062714,385.006592 464.215210,385.015930 
	C468.885529,389.747192 472.947083,393.861755 477.008667,397.976318 
	C477.342224,397.765045 477.675781,397.553802 478.009338,397.342529 
	C478.009338,398.766907 478.009338,400.191284 478.009338,401.615662 
	C478.534058,401.427551 479.058777,401.239410 479.583466,401.051270 
	C480.617706,402.676025 481.651947,404.300781 483.131897,405.953583 
M294.588959,343.019745 
	C268.070312,354.270996 241.764923,353.533508 215.797256,341.320740 
	C206.352051,336.878601 206.457199,336.638672 198.864761,344.071442 
	C190.090378,352.661316 181.326431,361.261810 172.405823,370.006836 
	C173.981445,371.354279 174.789536,372.205078 175.742538,372.837433 
	C218.700668,401.340942 264.167450,406.144073 312.206787,387.417145 
	C313.698944,386.835510 316.511322,387.296936 317.606140,388.383026 
	C344.077393,414.642334 370.424225,441.027496 396.729950,467.453156 
	C404.186707,474.943909 411.444611,482.632599 418.728302,490.162903 
	C442.849762,466.003387 466.127716,442.688690 489.473114,419.306458 
	C454.971497,384.878082 420.362274,350.342346 386.023651,316.076660 
	C406.581635,265.064240 401.732880,217.658646 371.028320,172.805099 
	C359.312408,184.590332 348.107635,195.861420 336.865143,207.170425 
	C368.933014,260.862518 342.637543,322.226318 294.588959,343.019745 
z"/>
<path fill="#F5F5F5" opacity="1.000000" stroke="none" 
	d="
M137.672562,57.384636 
	C138.050888,59.911236 137.337723,62.321259 141.220505,62.268414 
	C142.490860,62.251122 141.481689,66.298103 145.174911,66.415627 
	C146.858765,66.469208 148.254868,70.579994 150.080215,72.577576 
	C151.891388,74.559631 154.139725,76.134445 156.083878,78.004776 
	C158.393005,80.226219 160.582108,82.572418 162.166595,85.752602 
	C163.598907,85.888145 165.031204,86.023689 165.069046,86.027275 
	C169.948410,90.883232 174.046371,94.961533 178.959961,99.851540 
	C178.953323,99.741508 179.031738,101.041397 179.038681,101.156357 
	C186.446930,108.507553 193.216187,115.224670 199.985443,121.941788 
	C202.407486,123.174622 205.443298,123.697693 205.270691,119.056030 
	C211.038681,118.702042 216.039688,119.011353 221.263535,115.493004 
	C224.805908,113.107170 231.255264,115.037483 236.773773,115.037483 
	C236.923553,113.608101 237.050705,112.394730 237.375916,109.291069 
	C239.742783,111.313896 241.049713,113.373734 242.495300,113.476128 
	C245.822968,113.711823 249.237320,113.122787 252.578247,112.616196 
	C254.453247,112.331894 256.268311,111.040848 258.081512,111.099266 
	C261.035553,111.194450 263.946869,114.560577 266.987305,111.058311 
	C267.085999,110.944618 268.323975,112.042999 269.116394,112.251678 
	C270.088898,112.507782 271.486603,115.351044 272.269287,111.852173 
	C272.363464,111.431198 276.515625,111.149231 276.714386,111.640770 
	C278.466217,115.973839 282.297150,114.657204 285.266022,114.870255 
	C289.180328,115.151138 292.685425,115.622406 296.428894,117.428497 
	C300.195801,119.245895 304.981720,118.951218 309.827301,119.655594 
	C309.919556,120.313843 310.088684,121.520447 310.175018,122.136589 
	C316.859772,124.219734 323.081909,126.158707 329.858917,128.270599 
	C329.716064,128.598160 329.234283,129.703018 328.686493,130.959290 
	C330.544769,130.959290 332.513092,130.959290 334.425293,130.959290 
	C335.538025,135.972763 339.483246,137.706039 343.411255,138.877060 
	C347.218018,140.011948 348.473663,141.548187 345.896973,144.430923 
	C341.349091,149.519028 336.217957,154.080948 331.440125,158.969772 
	C326.882416,163.633347 322.487030,168.455109 317.975342,173.164276 
	C315.315277,175.940811 312.857300,179.052917 309.746582,181.200272 
	C307.997131,182.407959 305.105194,181.960724 302.430573,182.296371 
	C302.158936,180.771637 301.942932,179.559052 301.735321,178.393570 
	C298.996979,176.961227 293.945923,180.379135 293.823578,175.624008 
	C290.541412,173.887283 287.936157,172.466888 285.284302,171.139679 
	C284.731567,170.863052 284.003815,170.946198 283.361084,170.837936 
	C273.838135,169.234039 264.342377,167.430740 254.777908,166.133972 
	C251.795197,165.729568 247.395645,165.533752 245.781357,167.251007 
	C241.416183,171.894638 236.174637,168.774216 231.682251,170.252777 
	C227.997696,171.465469 224.582275,173.495865 220.075287,175.622574 
	C220.106125,175.410858 219.927811,176.634766 219.727402,178.010223 
	C217.171753,178.010223 214.875107,178.010223 212.234192,178.010223 
	C212.081039,179.398071 211.947342,180.609558 211.813629,181.821045 
	C211.474487,181.445160 211.135345,181.069275 210.796204,180.693390 
	C207.798172,182.456024 204.619751,183.978226 201.855255,186.052155 
	C199.332733,187.944534 197.318695,190.500732 194.967224,192.639771 
	C193.222076,194.227295 191.374573,196.967163 190.216461,197.533157 
	C185.623840,199.777725 185.999191,205.024506 182.895935,207.563934 
	C179.053802,210.708008 179.812637,216.395996 175.633041,219.085785 
	C175.379898,219.248672 175.058578,219.612518 175.081558,219.852951 
	C175.745682,226.798676 168.117538,231.744019 170.723648,239.514740 
	C171.572220,242.044937 168.350784,245.677536 168.128342,248.884796 
	C167.680099,255.348434 166.062775,262.794617 168.586105,268.093262 
	C170.977173,273.114197 170.375275,277.306427 170.739792,282.000946 
	C170.876007,283.754944 172.874207,285.371643 174.050461,287.031769 
	C174.301468,287.386017 174.927200,287.643280 174.944580,287.968506 
	C175.121429,291.278259 174.891266,294.207703 178.041550,297.072845 
	C179.855087,298.722198 178.693130,303.498993 182.831299,304.570587 
	C182.417236,306.101227 182.484543,308.116547 181.510788,309.083649 
	C175.318207,315.233948 168.779083,321.035339 162.586075,327.185242 
	C157.603226,332.133392 153.135040,337.607605 148.058014,342.449432 
	C145.912430,344.495605 142.790985,345.518524 140.113083,347.006561 
	C140.190125,346.319031 140.267151,345.631500 140.344193,344.943970 
	C138.615173,342.639191 135.828842,340.514618 135.398178,337.988464 
	C134.704956,333.922028 128.133560,333.670959 129.918945,328.517029 
	C130.040558,328.165985 129.462250,327.451019 129.059036,327.060699 
	C127.348732,325.405029 124.683464,324.260559 126.778297,320.988159 
	C127.094849,320.493652 125.803078,318.100098 124.890724,317.833771 
	C120.067276,316.425812 122.723480,312.528076 121.699883,309.435608 
	C120.799805,309.239319 119.603836,308.978516 117.987335,308.626007 
	C117.987335,306.099396 117.961052,303.472168 117.994141,300.845673 
	C118.033554,297.718079 118.306122,294.602020 114.748993,292.809753 
	C114.137863,292.501862 114.035332,290.818848 114.016388,289.765289 
	C113.938591,285.438629 113.983887,281.109711 113.983887,276.365204 
	C112.658508,276.153656 111.365685,275.947296 110.097710,275.744873 
	C110.155952,275.023804 110.059715,274.528412 110.225487,274.414551 
	C112.934723,272.553955 112.885002,270.491241 111.025459,267.980438 
	C108.848862,265.041534 109.212456,262.597229 112.303421,261.422089 
	C111.519295,259.687408 110.337837,258.035156 110.144882,256.274536 
	C110.034866,255.270752 111.537750,254.090210 112.471642,252.766281 
	C109.740524,251.417084 108.167213,249.190140 111.280296,245.747513 
	C111.612297,245.380356 110.545685,243.748474 109.998947,242.380722 
	C110.668938,242.192001 111.387604,241.989563 112.347366,241.719208 
	C111.484131,240.765900 110.668922,239.865631 109.371010,238.432312 
	C111.249298,238.132645 112.451691,237.940811 113.983734,237.696396 
	C113.983734,234.764786 113.636414,231.729767 114.083557,228.816711 
	C114.511948,226.025726 115.925735,223.400986 116.609840,220.629959 
	C117.266098,217.971710 117.298958,215.149704 118.052635,212.528122 
	C118.805626,209.908936 120.261848,207.498764 121.127174,204.902756 
	C121.765228,202.988556 121.948883,200.922882 122.114357,200.066574 
	C113.230095,191.205505 105.041328,183.038116 96.015625,174.035980 
	C96.186279,174.043930 94.886368,173.983429 94.871338,173.982727 
	C88.760551,167.850815 83.355003,162.426590 77.949455,157.002365 
	C77.622246,157.210663 77.295029,157.418945 76.967819,157.627228 
	C76.967819,156.193192 76.967819,154.759140 76.967819,153.325104 
	C76.535957,153.612457 76.104103,153.899826 75.672241,154.187180 
	C73.334061,151.261414 71.477402,147.642075 68.529076,145.595139 
	C65.251831,143.319824 62.859509,140.753510 60.527134,137.579071 
	C58.388260,134.667984 54.795906,132.824829 51.843967,130.511124 
	C52.160225,130.074936 52.476486,129.638748 52.792744,129.202560 
	C51.360111,129.086731 49.927483,128.970917 49.954006,128.973053 
	C45.032772,124.065674 40.938908,119.983337 36.017178,115.075462 
	C36.024117,115.219948 35.961697,113.919899 35.956459,113.810738 
	C30.489319,108.469215 25.673023,103.763580 19.917198,98.140007 
	C18.772984,93.135551 21.432308,88.971268 27.120323,85.761246 
	C29.277939,84.543587 30.309568,81.428032 32.044380,79.334976 
	C33.603210,77.454239 35.152184,75.326523 37.189651,74.137062 
	C40.275112,72.335785 42.274040,69.876541 44.153301,66.965401 
	C45.126488,65.457855 47.209564,64.666779 48.791210,63.552017 
	C48.583435,63.101509 48.375660,62.651005 48.167885,62.200497 
	C49.600063,62.077194 51.032242,61.953896 52.766296,61.804604 
	C52.897034,60.370934 53.027008,58.945595 53.029114,58.922501 
	C65.858116,46.087856 77.898911,34.041759 90.765213,21.169792 
	C92.925690,21.169792 96.560936,21.169792 99.376839,21.169792 
	C105.758186,27.636015 111.802322,33.760540 117.846466,39.885063 
	C117.622047,40.175133 117.397629,40.465202 117.173218,40.755272 
	C118.605072,40.889465 120.036919,41.023659 121.468773,41.157852 
	C121.271629,41.480896 121.074478,41.803944 120.877335,42.126987 
	C122.244667,43.096634 123.811356,43.879520 124.934265,45.078156 
	C126.779823,47.048187 128.131836,49.503063 130.071121,51.356880 
	C132.292740,53.480610 134.927994,55.171631 137.672562,57.384636 
M298.498840,121.798454 
	C285.494965,118.017967 272.273560,115.809082 258.683228,115.724884 
	C239.004562,115.602989 220.025177,118.941803 201.981674,126.878929 
	C198.896729,128.235947 197.425430,126.829353 195.602585,125.001923 
	C167.985580,97.315376 140.353394,69.643944 112.709419,41.984322 
	C106.774048,36.045601 100.778053,30.167492 95.224083,24.671253 
	C71.471092,48.398170 48.174660,71.669037 23.992128,95.825027 
	C28.545019,100.016045 33.457634,104.242867 38.038471,108.802986 
	C67.170135,137.802902 96.214844,166.890167 125.340988,195.895660 
	C127.359344,197.905685 127.823883,199.558151 126.637222,202.370087 
	C116.366440,226.708008 113.381226,252.055115 117.220016,278.120605 
	C120.624199,301.235107 129.277390,322.272949 143.209351,340.909912 
	C154.634811,329.436646 165.940781,318.083344 177.292587,306.684021 
	C155.769318,268.495819 158.926575,227.622955 186.353592,195.436081 
	C198.788208,180.843475 214.550568,171.089340 233.110550,166.318268 
	C259.385040,159.564087 284.206512,163.792755 306.238800,176.968353 
	C318.095276,165.327988 329.407623,154.221802 341.061188,142.780609 
	C334.985107,139.129303 329.081604,135.018997 322.696960,131.890625 
	C315.101074,128.168777 307.092041,125.290222 298.498840,121.798454 
z"/>
<path fill="#FBF4F4" opacity="1.000000" stroke="none" 
	d="
M229.823120,196.988770 
	C231.541183,196.788452 233.385086,197.052292 233.984451,196.310516 
	C237.401718,192.081345 242.016479,193.009384 246.431290,192.993713 
	C253.594360,192.968292 260.757599,192.973785 267.920746,192.993134 
	C272.180115,193.004639 276.297363,192.530670 280.013031,196.077957 
	C281.618011,197.610199 285.306122,196.960403 287.406067,198.145477 
	C291.806152,200.830856 296.206207,203.516235 300.606262,206.201614 
	C300.675568,205.979538 300.744904,205.757477 300.814209,205.535400 
	C303.538574,208.349777 306.262970,211.164154 309.789856,214.807541 
	C310.293396,219.372650 313.814484,224.629059 317.823700,225.281540 
	C318.619080,229.904785 316.336395,235.609528 321.917236,238.816879 
	C321.908203,250.969162 321.899170,263.121429 321.890137,275.273712 
	C316.799591,278.490570 318.166260,283.715729 317.971405,288.362549 
	C313.012939,289.605255 310.187622,293.870850 309.894623,299.167877 
	C306.455658,302.618469 303.696381,305.387024 300.868622,308.224304 
	C297.336761,309.947723 293.514008,311.813141 289.176056,313.929901 
	C289.089478,314.468109 288.893951,315.683319 288.700653,316.884766 
	C284.227570,317.418884 279.365997,315.633636 276.585358,320.700653 
	C276.283081,321.251434 274.389893,320.998901 273.234406,321.000885 
	C262.406403,321.019531 251.577316,321.084534 240.751556,320.927826 
	C239.285065,320.906586 237.881027,319.584167 236.368454,319.128632 
	C232.842575,318.066650 229.268173,317.165771 225.145279,316.045227 
	C225.083588,315.619324 224.906586,314.397125 224.840988,313.944305 
	C220.555206,311.831146 216.882126,310.020081 212.782913,307.998901 
	C210.402832,305.590546 207.539215,302.692871 204.055450,299.167694 
	C203.905746,294.975983 200.206039,289.370850 196.017563,288.353455 
	C195.856613,283.697876 197.113235,278.566681 192.179459,275.157379 
	C191.609222,274.763336 191.994385,272.938660 191.992996,271.777222 
	C191.982849,263.281372 191.961945,254.785431 191.998001,246.289734 
	C192.014679,242.357437 191.746017,238.679169 194.872772,235.102798 
	C196.646332,233.074173 195.967316,228.901291 196.407135,225.586594 
	C200.239044,224.566040 203.928513,219.008423 204.035004,214.630249 
	C207.323853,211.472351 210.145050,208.763489 213.441803,205.598022 
	C216.504242,204.112518 220.333344,202.255142 224.674210,200.149521 
	C224.391403,197.434219 226.154709,196.283066 229.823120,196.988770 
M240.336731,316.457245 
	C248.743057,317.013458 257.283844,318.806702 265.532288,317.910187 
	C299.868011,314.178192 323.887848,280.769104 317.823181,246.170761 
	C311.877380,212.250198 278.149170,189.355011 244.777328,196.586166 
	C216.519424,202.709198 197.098389,225.436798 195.408585,254.360306 
	C193.787292,282.111084 211.523300,306.976105 240.336731,316.457245 
z"/>
<path fill="#323232" opacity="1.000000" stroke="none" 
	d="
M294.929779,342.854858 
	C342.637543,322.226318 368.933014,260.862518 336.865143,207.170425 
	C348.107635,195.861420 359.312408,184.590332 371.028320,172.805099 
	C401.732880,217.658646 406.581635,265.064240 386.023651,316.076660 
	C420.362274,350.342346 454.971497,384.878082 489.473114,419.306458 
	C466.127716,442.688690 442.849762,466.003387 418.728302,490.162903 
	C411.444611,482.632599 404.186707,474.943909 396.729950,467.453156 
	C370.424225,441.027496 344.077393,414.642334 317.606140,388.383026 
	C316.511322,387.296936 313.698944,386.835510 312.206787,387.417145 
	C264.167450,406.144073 218.700668,401.340942 175.742538,372.837433 
	C174.789536,372.205078 173.981445,371.354279 172.405823,370.006836 
	C181.326431,361.261810 190.090378,352.661316 198.864761,344.071442 
	C206.457199,336.638672 206.352051,336.878601 215.797256,341.320740 
	C241.764923,353.533508 268.070312,354.270996 294.929779,342.854858 
z"/>
<path fill="#323232" opacity="1.000000" stroke="none" 
	d="
M298.880432,121.922363 
	C307.092041,125.290222 315.101074,128.168777 322.696960,131.890625 
	C329.081604,135.018997 334.985107,139.129303 341.061188,142.780609 
	C329.407623,154.221802 318.095276,165.327988 306.238800,176.968353 
	C284.206512,163.792755 259.385040,159.564087 233.110550,166.318268 
	C214.550568,171.089340 198.788208,180.843475 186.353592,195.436081 
	C158.926575,227.622955 155.769318,268.495819 177.292587,306.684021 
	C165.940781,318.083344 154.634811,329.436646 143.209351,340.909912 
	C129.277390,322.272949 120.624199,301.235107 117.220016,278.120605 
	C113.381226,252.055115 116.366440,226.708008 126.637222,202.370087 
	C127.823883,199.558151 127.359344,197.905685 125.340988,195.895660 
	C96.214844,166.890167 67.170135,137.802902 38.038471,108.802986 
	C33.457634,104.242867 28.545019,100.016045 23.992128,95.825027 
	C48.174660,71.669037 71.471092,48.398170 95.224083,24.671253 
	C100.778053,30.167492 106.774048,36.045601 112.709419,41.984322 
	C140.353394,69.643944 167.985580,97.315376 195.602585,125.001923 
	C197.425430,126.829353 198.896729,128.235947 201.981674,126.878929 
	C220.025177,118.941803 239.004562,115.602989 258.683228,115.724884 
	C272.273560,115.809082 285.494965,118.017967 298.880432,121.922363 
z"/>
<path fill="#FB020F" opacity="1.000000" stroke="none" 
	d="
M239.943390,316.350830 
	C211.523300,306.976105 193.787292,282.111084 195.408585,254.360306 
	C197.098389,225.436798 216.519424,202.709198 244.777328,196.586166 
	C278.149170,189.355011 311.877380,212.250198 317.823181,246.170761 
	C323.887848,280.769104 299.868011,314.178192 265.532288,317.910187 
	C257.283844,318.806702 248.743057,317.013458 239.943390,316.350830 
z"/>
</svg>